<svg xmlns="http://www.w3.org/2000/svg" version="1.1" xmlns:xlink="http://www.w3.org/1999/xlink" width="200" height="200"><svg xmlns="http://www.w3.org/2000/svg" version="1.1" xmlns:xlink="http://www.w3.org/1999/xlink" viewBox="0 0 200 200"><rect width="200" height="200" fill="url('#gradient')"></rect><defs><linearGradient id="SvgjsLinearGradient1001" gradientTransform="rotate(45 0.5 0.5)"><stop offset="0%" stop-color="#87ffff"></stop><stop offset="100%" stop-color="#1f6cc2"></stop></linearGradient></defs><g><g fill="#ffffff" transform="matrix(4.988717948717949,0,0,4.988717948717949,1.000141955828056,135.47404105846698)" stroke="#000000" stroke-width="0.95"><path d="M12.71-7.60L12.71-1.76Q11.92-0.88 10.40-0.34Q8.88 0.20 7.06 0.20L7.06 0.20Q4.27 0.20 2.60-1.51Q0.93-3.22 0.81-6.27L0.81-6.27L0.80-7.50Q0.80-9.60 1.54-11.17Q2.29-12.73 3.67-13.58Q5.05-14.42 6.87-14.42L6.87-14.42Q9.52-14.42 10.99-13.21Q12.46-11.99 12.71-9.58L12.71-9.58L9.40-9.58Q9.23-10.77 8.64-11.28Q8.06-11.79 6.98-11.79L6.98-11.79Q5.69-11.79 4.99-10.69Q4.29-9.60 4.28-7.57L4.28-7.57L4.28-6.71Q4.28-4.58 5.00-3.51Q5.73-2.44 7.29-2.44L7.29-2.44Q8.63-2.44 9.29-3.04L9.29-3.04L9.29-5.24L6.90-5.24L6.90-7.60L12.71-7.60ZM20.32-4.82L18.13-4.82L18.13 0L14.71 0L14.71-14.22L20.38-14.22Q22.01-14.22 23.27-13.62Q24.52-13.02 25.21-11.91Q25.90-10.80 25.90-9.39L25.90-9.39Q25.90-7.31 24.41-6.07Q22.92-4.82 20.32-4.82L20.32-4.82ZM18.13-11.57L18.13-7.47L20.38-7.47Q21.38-7.47 21.90-7.97Q22.42-8.47 22.42-9.38L22.42-9.38Q22.42-10.37 21.88-10.97Q21.35-11.56 20.42-11.57L20.42-11.57L18.13-11.57ZM38.89-14.22L38.89-11.57L34.62-11.57L34.62 0L31.19 0L31.19-11.57L27.00-11.57L27.00-14.22L38.89-14.22Z"></path></g></g></svg><style>@media (prefers-color-scheme: light) { :root { filter: none; } }
@media (prefers-color-scheme: dark) { :root { filter: none; } }
</style></svg>